<svg version="1.1" xmlns="http://www.w3.org/2000/svg" xmlns:xlink="http://www.w3.org/1999/xlink" width="850" height="546"><defs><clipPath id="RNOBLBnDteyu"><path fill="none" stroke="none" d=" M 0 0 L 850 0 L 850 546 L 0 546 L 0 0 Z"/></clipPath></defs><g transform="scale(1,1)" clip-path="url(#RNOBLBnDteyu)"><g><rect fill="rgb(255,255,255)" stroke="none" x="0" y="0" width="850" height="546" fill-opacity="1"/><path fill="none" stroke="rgb(188,212,230)" paint-order="fill stroke markers" d=" M 17.5 0.5 L 17.5 546.5 M 17.5 0.5 L 17.5 546.5 M 94.5 0.5 L 94.5 546.5 M 170.5 0.5 L 170.5 546.5 M 247.5 0.5 L 247.5 546.5 M 324.5 0.5 L 324.5 546.5 M 477.5 0.5 L 477.5 546.5 M 553.5 0.5 L 553.5 546.5 M 630.5 0.5 L 630.5 546.5 M 707.5 0.5 L 707.5 546.5 M 783.5 0.5 L 783.5 546.5" stroke-opacity="1" stroke-linecap="round" stroke-linejoin="round" stroke-miterlimit="10"/><path fill="none" stroke="rgb(188,212,230)" paint-order="fill stroke markers" d=" M 2.5 0.5 L 2.5 546.5 M 32.5 0.5 L 32.5 546.5 M 48.5 0.5 L 48.5 546.5 M 63.5 0.5 L 63.5 546.5 M 78.5 0.5 L 78.5 546.5 M 109.5 0.5 L 109.5 546.5 M 124.5 0.5 L 124.5 546.5 M 140.5 0.5 L 140.5 546.5 M 155.5 0.5 L 155.5 546.5 M 186.5 0.5 L 186.5 546.5 M 201.5 0.5 L 201.5 546.5 M 216.5 0.5 L 216.5 546.5 M 232.5 0.5 L 232.5 546.5 M 262.5 0.5 L 262.5 546.5 M 278.5 0.5 L 278.5 546.5 M 293.5 0.5 L 293.5 546.5 M 308.5 0.5 L 308.5 546.5 M 339.5 0.5 L 339.5 546.5 M 354.5 0.5 L 354.5 546.5 M 370.5 0.5 L 370.5 546.5 M 385.5 0.5 L 385.5 546.5 M 416.5 0.5 L 416.5 546.5 M 431.5 0.5 L 431.5 546.5 M 446.5 0.5 L 446.5 546.5 M 462.5 0.5 L 462.5 546.5 M 492.5 0.5 L 492.5 546.5 M 507.5 0.5 L 507.5 546.5 M 523.5 0.5 L 523.5 546.5 M 538.5 0.5 L 538.5 546.5 M 569.5 0.5 L 569.5 546.5 M 584.5 0.5 L 584.5 546.5 M 599.5 0.5 L 599.5 546.5 M 615.5 0.5 L 615.5 546.5 M 645.5 0.5 L 645.5 546.5 M 661.5 0.5 L 661.5 546.5 M 676.5 0.5 L 676.5 546.5 M 691.5 0.5 L 691.5 546.5 M 722.5 0.5 L 722.5 546.5 M 737.5 0.5 L 737.5 546.5 M 753.5 0.5 L 753.5 546.5 M 768.5 0.5 L 768.5 546.5 M 799.5 0.5 L 799.5 546.5 M 814.5 0.5 L 814.5 546.5 M 829.5 0.5 L 829.5 546.5 M 845.5 0.5 L 845.5 546.5" stroke-opacity="0.23529411764705882" stroke-linecap="round" stroke-linejoin="round" stroke-miterlimit="10"/><path fill="none" stroke="rgb(188,212,230)" paint-order="fill stroke markers" d=" M 0.5 70.5 L 850.5 70.5 M 0.5 70.5 L 850.5 70.5 M 0.5 147.5 L 850.5 147.5 M 0.5 223.5 L 850.5 223.5 M 0.5 377.5 L 850.5 377.5 M 0.5 453.5 L 850.5 453.5 M 0.5 530.5 L 850.5 530.5" stroke-opacity="1" stroke-linecap="round" stroke-linejoin="round" stroke-miterlimit="10"/><path fill="none" stroke="rgb(188,212,230)" paint-order="fill stroke markers" d=" M 0.5 9.5 L 850.5 9.5 M 0.5 24.5 L 850.5 24.5 M 0.5 39.5 L 850.5 39.5 M 0.5 55.5 L 850.5 55.5 M 0.5 85.5 L 850.5 85.5 M 0.5 101.5 L 850.5 101.5 M 0.5 116.5 L 850.5 116.5 M 0.5 131.5 L 850.5 131.5 M 0.5 162.5 L 850.5 162.5 M 0.5 177.5 L 850.5 177.5 M 0.5 193.5 L 850.5 193.5 M 0.5 208.5 L 850.5 208.5 M 0.5 239.5 L 850.5 239.5 M 0.5 254.5 L 850.5 254.5 M 0.5 269.5 L 850.5 269.5 M 0.5 285.5 L 850.5 285.5 M 0.5 315.5 L 850.5 315.5 M 0.5 331.5 L 850.5 331.5 M 0.5 346.5 L 850.5 346.5 M 0.5 361.5 L 850.5 361.5 M 0.5 392.5 L 850.5 392.5 M 0.5 407.5 L 850.5 407.5 M 0.5 423.5 L 850.5 423.5 M 0.5 438.5 L 850.5 438.5 M 0.5 469.5 L 850.5 469.5 M 0.5 484.5 L 850.5 484.5 M 0.5 499.5 L 850.5 499.5 M 0.5 515.5 L 850.5 515.5 M 0.5 545.5 L 850.5 545.5" stroke-opacity="0.23529411764705882" stroke-linecap="round" stroke-linejoin="round" stroke-miterlimit="10"/><path fill="none" stroke="rgb(188,212,230)" paint-order="fill stroke markers" d=" M 401 3 L 401 546" stroke-opacity="1" stroke-miterlimit="10" stroke-width="2"/><path fill="rgb(188,212,230)" stroke="none" paint-order="stroke fill markers" fill-rule="evenodd" d=" M 400.69124190729394 2 L 395.69124190729394 22 L 405.69124190729394 22" fill-opacity="1"/><path fill="none" stroke="rgb(188,212,230)" paint-order="fill stroke markers" d=" M 0 300 L 847 300" stroke-opacity="1" stroke-miterlimit="10" stroke-width="2"/><path fill="rgb(188,212,230)" stroke="none" paint-order="stroke fill markers" fill-rule="evenodd" d=" M 848 300.47467273067554 L 828 295.47467273067554 L 828 305.47467273067554" fill-opacity="1"/><text fill="rgb(188,212,230)" stroke="none" font-family="geogebra-serif, serif" font-size="12px" font-style="normal" font-weight="normal" text-decoration="normal" x="12" y="316" text-anchor="start" dominant-baseline="alphabetic" fill-opacity="1">–5</text><text fill="none" stroke="rgb(255,255,255)" font-family="geogebra-serif, serif" font-size="12px" font-style="normal" font-weight="normal" text-decoration="normal" x="12" y="316" text-anchor="start" dominant-baseline="alphabetic" stroke-opacity="1" stroke-linejoin="bevel" stroke-miterlimit="10" stroke-width="3">–5</text><text fill="rgb(188,212,230)" stroke="none" font-family="geogebra-serif, serif" font-size="12px" font-style="normal" font-weight="normal" text-decoration="normal" x="12" y="316" text-anchor="start" dominant-baseline="alphabetic" fill-opacity="1">–5</text><text fill="rgb(188,212,230)" stroke="none" font-family="geogebra-serif, serif" font-size="12px" font-style="normal" font-weight="normal" text-decoration="normal" x="89" y="316" text-anchor="start" dominant-baseline="alphabetic" fill-opacity="1">–4</text><text fill="none" stroke="rgb(255,255,255)" font-family="geogebra-serif, serif" font-size="12px" font-style="normal" font-weight="normal" text-decoration="normal" x="89" y="316" text-anchor="start" dominant-baseline="alphabetic" stroke-opacity="1" stroke-linejoin="bevel" stroke-miterlimit="10" stroke-width="3">–4</text><text fill="rgb(188,212,230)" stroke="none" font-family="geogebra-serif, serif" font-size="12px" font-style="normal" font-weight="normal" text-decoration="normal" x="89" y="316" text-anchor="start" dominant-baseline="alphabetic" fill-opacity="1">–4</text><text fill="rgb(188,212,230)" stroke="none" font-family="geogebra-serif, serif" font-size="12px" font-style="normal" font-weight="normal" text-decoration="normal" x="165" y="316" text-anchor="start" dominant-baseline="alphabetic" fill-opacity="1">–3</text><text fill="none" stroke="rgb(255,255,255)" font-family="geogebra-serif, serif" font-size="12px" font-style="normal" font-weight="normal" text-decoration="normal" x="165" y="316" text-anchor="start" dominant-baseline="alphabetic" stroke-opacity="1" stroke-linejoin="bevel" stroke-miterlimit="10" stroke-width="3">–3</text><text fill="rgb(188,212,230)" stroke="none" font-family="geogebra-serif, serif" font-size="12px" font-style="normal" font-weight="normal" text-decoration="normal" x="165" y="316" text-anchor="start" dominant-baseline="alphabetic" fill-opacity="1">–3</text><text fill="rgb(188,212,230)" stroke="none" font-family="geogebra-serif, serif" font-size="12px" font-style="normal" font-weight="normal" text-decoration="normal" x="242" y="316" text-anchor="start" dominant-baseline="alphabetic" fill-opacity="1">–2</text><text fill="none" stroke="rgb(255,255,255)" font-family="geogebra-serif, serif" font-size="12px" font-style="normal" font-weight="normal" text-decoration="normal" x="242" y="316" text-anchor="start" dominant-baseline="alphabetic" stroke-opacity="1" stroke-linejoin="bevel" stroke-miterlimit="10" stroke-width="3">–2</text><text fill="rgb(188,212,230)" stroke="none" font-family="geogebra-serif, serif" font-size="12px" font-style="normal" font-weight="normal" text-decoration="normal" x="242" y="316" text-anchor="start" dominant-baseline="alphabetic" fill-opacity="1">–2</text><text fill="rgb(188,212,230)" stroke="none" font-family="geogebra-serif, serif" font-size="12px" font-style="normal" font-weight="normal" text-decoration="normal" x="319" y="316" text-anchor="start" dominant-baseline="alphabetic" fill-opacity="1">–1</text><text fill="none" stroke="rgb(255,255,255)" font-family="geogebra-serif, serif" font-size="12px" font-style="normal" font-weight="normal" text-decoration="normal" x="319" y="316" text-anchor="start" dominant-baseline="alphabetic" stroke-opacity="1" stroke-linejoin="bevel" stroke-miterlimit="10" stroke-width="3">–1</text><text fill="rgb(188,212,230)" stroke="none" font-family="geogebra-serif, serif" font-size="12px" font-style="normal" font-weight="normal" text-decoration="normal" x="319" y="316" text-anchor="start" dominant-baseline="alphabetic" fill-opacity="1">–1</text><text fill="rgb(188,212,230)" stroke="none" font-family="geogebra-serif, serif" font-size="12px" font-style="normal" font-weight="normal" text-decoration="normal" x="475" y="316" text-anchor="start" dominant-baseline="alphabetic" fill-opacity="1">1</text><text fill="none" stroke="rgb(255,255,255)" font-family="geogebra-serif, serif" font-size="12px" font-style="normal" font-weight="normal" text-decoration="normal" x="475" y="316" text-anchor="start" dominant-baseline="alphabetic" stroke-opacity="1" stroke-linejoin="bevel" stroke-miterlimit="10" stroke-width="3">1</text><text fill="rgb(188,212,230)" stroke="none" font-family="geogebra-serif, serif" font-size="12px" font-style="normal" font-weight="normal" text-decoration="normal" x="475" y="316" text-anchor="start" dominant-baseline="alphabetic" fill-opacity="1">1</text><text fill="rgb(188,212,230)" stroke="none" font-family="geogebra-serif, serif" font-size="12px" font-style="normal" font-weight="normal" text-decoration="normal" x="551" y="316" text-anchor="start" dominant-baseline="alphabetic" fill-opacity="1">2</text><text fill="none" stroke="rgb(255,255,255)" font-family="geogebra-serif, serif" font-size="12px" font-style="normal" font-weight="normal" text-decoration="normal" x="551" y="316" text-anchor="start" dominant-baseline="alphabetic" stroke-opacity="1" stroke-linejoin="bevel" stroke-miterlimit="10" stroke-width="3">2</text><text fill="rgb(188,212,230)" stroke="none" font-family="geogebra-serif, serif" font-size="12px" font-style="normal" font-weight="normal" text-decoration="normal" x="551" y="316" text-anchor="start" dominant-baseline="alphabetic" fill-opacity="1">2</text><text fill="rgb(188,212,230)" stroke="none" font-family="geogebra-serif, serif" font-size="12px" font-style="normal" font-weight="normal" text-decoration="normal" x="628" y="316" text-anchor="start" dominant-baseline="alphabetic" fill-opacity="1">3</text><text fill="none" stroke="rgb(255,255,255)" font-family="geogebra-serif, serif" font-size="12px" font-style="normal" font-weight="normal" text-decoration="normal" x="628" y="316" text-anchor="start" dominant-baseline="alphabetic" stroke-opacity="1" stroke-linejoin="bevel" stroke-miterlimit="10" stroke-width="3">3</text><text fill="rgb(188,212,230)" stroke="none" font-family="geogebra-serif, serif" font-size="12px" font-style="normal" font-weight="normal" text-decoration="normal" x="628" y="316" text-anchor="start" dominant-baseline="alphabetic" fill-opacity="1">3</text><text fill="rgb(188,212,230)" stroke="none" font-family="geogebra-serif, serif" font-size="12px" font-style="normal" font-weight="normal" text-decoration="normal" x="705" y="316" text-anchor="start" dominant-baseline="alphabetic" fill-opacity="1">4</text><text fill="none" stroke="rgb(255,255,255)" font-family="geogebra-serif, serif" font-size="12px" font-style="normal" font-weight="normal" text-decoration="normal" x="705" y="316" text-anchor="start" dominant-baseline="alphabetic" stroke-opacity="1" stroke-linejoin="bevel" stroke-miterlimit="10" stroke-width="3">4</text><text fill="rgb(188,212,230)" stroke="none" font-family="geogebra-serif, serif" font-size="12px" font-style="normal" font-weight="normal" text-decoration="normal" x="705" y="316" text-anchor="start" dominant-baseline="alphabetic" fill-opacity="1">4</text><text fill="rgb(188,212,230)" stroke="none" font-family="geogebra-serif, serif" font-size="12px" font-style="normal" font-weight="normal" text-decoration="normal" x="781" y="316" text-anchor="start" dominant-baseline="alphabetic" fill-opacity="1">5</text><text fill="none" stroke="rgb(255,255,255)" font-family="geogebra-serif, serif" font-size="12px" font-style="normal" font-weight="normal" text-decoration="normal" x="781" y="316" text-anchor="start" dominant-baseline="alphabetic" stroke-opacity="1" stroke-linejoin="bevel" stroke-miterlimit="10" stroke-width="3">5</text><text fill="rgb(188,212,230)" stroke="none" font-family="geogebra-serif, serif" font-size="12px" font-style="normal" font-weight="normal" text-decoration="normal" x="781" y="316" text-anchor="start" dominant-baseline="alphabetic" fill-opacity="1">5</text><text fill="rgb(188,212,230)" stroke="none" font-family="geogebra-serif, serif" font-size="12px" font-style="normal" font-weight="normal" text-decoration="normal" x="376" y="535" text-anchor="start" dominant-baseline="alphabetic" fill-opacity="1">–3°</text><text fill="none" stroke="rgb(255,255,255)" font-family="geogebra-serif, serif" font-size="12px" font-style="normal" font-weight="normal" text-decoration="normal" x="376" y="535" text-anchor="start" dominant-baseline="alphabetic" stroke-opacity="1" stroke-linejoin="bevel" stroke-miterlimit="10" stroke-width="3">–3°</text><text fill="rgb(188,212,230)" stroke="none" font-family="geogebra-serif, serif" font-size="12px" font-style="normal" font-weight="normal" text-decoration="normal" x="376" y="535" text-anchor="start" dominant-baseline="alphabetic" fill-opacity="1">–3°</text><text fill="rgb(188,212,230)" stroke="none" font-family="geogebra-serif, serif" font-size="12px" font-style="normal" font-weight="normal" text-decoration="normal" x="376" y="458" text-anchor="start" dominant-baseline="alphabetic" fill-opacity="1">–2°</text><text fill="none" stroke="rgb(255,255,255)" font-family="geogebra-serif, serif" font-size="12px" font-style="normal" font-weight="normal" text-decoration="normal" x="376" y="458" text-anchor="start" dominant-baseline="alphabetic" stroke-opacity="1" stroke-linejoin="bevel" stroke-miterlimit="10" stroke-width="3">–2°</text><text fill="rgb(188,212,230)" stroke="none" font-family="geogebra-serif, serif" font-size="12px" font-style="normal" font-weight="normal" text-decoration="normal" x="376" y="458" text-anchor="start" dominant-baseline="alphabetic" fill-opacity="1">–2°</text><text fill="rgb(188,212,230)" stroke="none" font-family="geogebra-serif, serif" font-size="12px" font-style="normal" font-weight="normal" text-decoration="normal" x="376" y="382" text-anchor="start" dominant-baseline="alphabetic" fill-opacity="1">–1°</text><text fill="none" stroke="rgb(255,255,255)" font-family="geogebra-serif, serif" font-size="12px" font-style="normal" font-weight="normal" text-decoration="normal" x="376" y="382" text-anchor="start" dominant-baseline="alphabetic" stroke-opacity="1" stroke-linejoin="bevel" stroke-miterlimit="10" stroke-width="3">–1°</text><text fill="rgb(188,212,230)" stroke="none" font-family="geogebra-serif, serif" font-size="12px" font-style="normal" font-weight="normal" text-decoration="normal" x="376" y="382" text-anchor="start" dominant-baseline="alphabetic" fill-opacity="1">–1°</text><text fill="rgb(188,212,230)" stroke="none" font-family="geogebra-serif, serif" font-size="12px" font-style="normal" font-weight="normal" text-decoration="normal" x="382" y="228" text-anchor="start" dominant-baseline="alphabetic" fill-opacity="1">1°</text><text fill="none" stroke="rgb(255,255,255)" font-family="geogebra-serif, serif" font-size="12px" font-style="normal" font-weight="normal" text-decoration="normal" x="382" y="228" text-anchor="start" dominant-baseline="alphabetic" stroke-opacity="1" stroke-linejoin="bevel" stroke-miterlimit="10" stroke-width="3">1°</text><text fill="rgb(188,212,230)" stroke="none" font-family="geogebra-serif, serif" font-size="12px" font-style="normal" font-weight="normal" text-decoration="normal" x="382" y="228" text-anchor="start" dominant-baseline="alphabetic" fill-opacity="1">1°</text><text fill="rgb(188,212,230)" stroke="none" font-family="geogebra-serif, serif" font-size="12px" font-style="normal" font-weight="normal" text-decoration="normal" x="382" y="152" text-anchor="start" dominant-baseline="alphabetic" fill-opacity="1">2°</text><text fill="none" stroke="rgb(255,255,255)" font-family="geogebra-serif, serif" font-size="12px" font-style="normal" font-weight="normal" text-decoration="normal" x="382" y="152" text-anchor="start" dominant-baseline="alphabetic" stroke-opacity="1" stroke-linejoin="bevel" stroke-miterlimit="10" stroke-width="3">2°</text><text fill="rgb(188,212,230)" stroke="none" font-family="geogebra-serif, serif" font-size="12px" font-style="normal" font-weight="normal" text-decoration="normal" x="382" y="152" text-anchor="start" dominant-baseline="alphabetic" fill-opacity="1">2°</text><text fill="rgb(188,212,230)" stroke="none" font-family="geogebra-serif, serif" font-size="12px" font-style="normal" font-weight="normal" text-decoration="normal" x="382" y="75" text-anchor="start" dominant-baseline="alphabetic" fill-opacity="1">3°</text><text fill="none" stroke="rgb(255,255,255)" font-family="geogebra-serif, serif" font-size="12px" font-style="normal" font-weight="normal" text-decoration="normal" x="382" y="75" text-anchor="start" dominant-baseline="alphabetic" stroke-opacity="1" stroke-linejoin="bevel" stroke-miterlimit="10" stroke-width="3">3°</text><text fill="rgb(188,212,230)" stroke="none" font-family="geogebra-serif, serif" font-size="12px" font-style="normal" font-weight="normal" text-decoration="normal" x="382" y="75" text-anchor="start" dominant-baseline="alphabetic" fill-opacity="1">3°</text><text fill="rgb(188,212,230)" stroke="none" font-family="geogebra-serif, serif" font-size="12px" font-style="normal" font-weight="normal" text-decoration="normal" x="387" y="316" text-anchor="start" dominant-baseline="alphabetic" fill-opacity="1">0</text><text fill="none" stroke="rgb(255,255,255)" font-family="geogebra-serif, serif" font-size="12px" font-style="normal" font-weight="normal" text-decoration="normal" x="387" y="316" text-anchor="start" dominant-baseline="alphabetic" stroke-opacity="1" stroke-linejoin="bevel" stroke-miterlimit="10" stroke-width="3">0</text><text fill="rgb(188,212,230)" stroke="none" font-family="geogebra-serif, serif" font-size="12px" font-style="normal" font-weight="normal" text-decoration="normal" x="387" y="316" text-anchor="start" dominant-baseline="alphabetic" fill-opacity="1">0</text><path fill="none" stroke="rgb(255,153,51)" paint-order="fill stroke markers" d=" M 170.74908157287675 -312.70442149443704 C 324.04385512915485 607.0642198432317 477.33862868543304 607.0642198432317 630.6334022417111 -312.70442149443704" stroke-opacity="0.8" stroke-linecap="round" stroke-linejoin="round" stroke-miterlimit="10" stroke-width="2.5"/><path fill="none" stroke="rgb(255,204,51)" paint-order="fill stroke markers" d=" M 170.74908157287675 -465.9991950507151 C 324.04385512915485 453.76944628695367 477.33862868543304 453.76944628695367 630.6334022417111 -465.9991950507151" stroke-opacity="0.8" stroke-linecap="round" stroke-linejoin="round" stroke-miterlimit="10" stroke-width="2.5"/><path fill="none" stroke="rgb(255,153,0)" paint-order="fill stroke markers" d=" M 247.3964683510158 -6.114874381880725 C 349.5929840552012 402.67118843486094 451.7894997593867 402.67118843486094 553.9860154635721 -6.114874381880725" stroke-opacity="0.8" stroke-linecap="round" stroke-linejoin="round" stroke-miterlimit="10" stroke-width="2.5"/><path fill="none" stroke="rgb(255,102,0)" paint-order="fill stroke markers" d=" M 170.74908157287675 -236.05703471629795 C 324.04385512915485 683.7116066213708 477.33862868543304 683.7116066213708 630.6334022417111 -236.05703471629795" stroke-opacity="0.8" stroke-linecap="round" stroke-linejoin="round" stroke-miterlimit="10" stroke-width="2.5"/><path fill="none" stroke="rgb(101,87,210)" paint-order="fill stroke markers" d=" M 170.74908157287675 -182.40386397160057 C 324.04385512915485 737.3647773660682 477.33862868543304 737.3647773660682 630.6334022417111 -182.40386397160057" stroke-opacity="0.8" stroke-linecap="round" stroke-linejoin="round" stroke-miterlimit="10" stroke-width="2.5"/><path fill="rgb(255,153,51)" stroke="none" paint-order="stroke fill markers" d=" M 252.3964683510158 70.53251239625834 C 252.3964683510158 73.2939361454123 250.1578921001698 75.53251239625834 247.3964683510158 75.53251239625834 C 244.63504460186184 75.53251239625834 242.3964683510158 73.2939361454123 242.3964683510158 70.53251239625834 C 242.3964683510158 67.77108864710438 244.63504460186184 65.53251239625834 247.3964683510158 65.53251239625834 C 250.1578921001698 65.53251239625834 252.3964683510158 67.77108864710438 252.3964683510158 70.53251239625834 Z" fill-opacity="1"/><path fill="rgb(255,153,51)" stroke="none" paint-order="stroke fill markers" d=" M 329.04385512915485 300.47467273067554 C 329.04385512915485 303.2360964798295 326.8052788783088 305.47467273067554 324.04385512915485 305.47467273067554 C 321.2824313800009 305.47467273067554 319.04385512915485 303.2360964798295 319.04385512915485 300.47467273067554 C 319.04385512915485 297.7132489815216 321.2824313800009 295.47467273067554 324.04385512915485 295.47467273067554 C 326.8052788783088 295.47467273067554 329.04385512915485 297.7132489815216 329.04385512915485 300.47467273067554 Z" fill-opacity="1"/><path fill="rgb(255,153,51)" stroke="none" paint-order="stroke fill markers" d=" M 405.69124190729394 377.1220595088146 C 405.69124190729394 379.8834832579685 403.4526656564479 382.1220595088146 400.69124190729394 382.1220595088146 C 397.92981815814 382.1220595088146 395.69124190729394 379.8834832579685 395.69124190729394 377.1220595088146 C 395.69124190729394 374.3606357596606 397.92981815814 372.1220595088146 400.69124190729394 372.1220595088146 C 403.4526656564479 372.1220595088146 405.69124190729394 374.3606357596606 405.69124190729394 377.1220595088146 Z" fill-opacity="1"/><path fill="rgb(255,153,51)" stroke="none" paint-order="stroke fill markers" d=" M 482.33862868543304 300.47467273067554 C 482.33862868543304 303.2360964798295 480.100052434587 305.47467273067554 477.33862868543304 305.47467273067554 C 474.5772049362791 305.47467273067554 472.33862868543304 303.2360964798295 472.33862868543304 300.47467273067554 C 472.33862868543304 297.7132489815216 474.5772049362791 295.47467273067554 477.33862868543304 295.47467273067554 C 480.100052434587 295.47467273067554 482.33862868543304 297.7132489815216 482.33862868543304 300.47467273067554 Z" fill-opacity="1"/><path fill="rgb(255,153,51)" stroke="none" paint-order="stroke fill markers" d=" M 558.9860154635721 70.53251239625834 C 558.9860154635721 73.2939361454123 556.7474392127261 75.53251239625834 553.9860154635721 75.53251239625834 C 551.2245917144181 75.53251239625834 548.9860154635721 73.2939361454123 548.9860154635721 70.53251239625834 C 548.9860154635721 67.77108864710438 551.2245917144181 65.53251239625834 553.9860154635721 65.53251239625834 C 556.7474392127261 65.53251239625834 558.9860154635721 67.77108864710438 558.9860154635721 70.53251239625834 Z" fill-opacity="1"/></g></g></svg>